<svg width="72" height="70" viewBox="0 0 72 70" fill="none" xmlns="http://www.w3.org/2000/svg">
<rect x="1.62677" y="1.18115" width="68.7795" height="67.6362" rx="7" stroke="white" stroke-width="2"/>
<path d="M41.0215 17.5057C41.0215 15.322 38.4209 14.1864 36.8206 15.6722L27.1387 24.6594C26.9078 24.8744 26.6041 24.9942 26.2886 24.9946H19.7673C18.7725 24.9946 17.8185 25.3899 17.1151 26.0935C16.4117 26.7971 16.0165 27.7515 16.0165 28.7466V41.2531C16.0165 42.2482 16.4117 43.2025 17.1151 43.9061C17.8185 44.6098 18.7725 45.0051 19.7673 45.0051H26.2861C26.6012 45.0048 26.9049 45.1236 27.1362 45.3377L36.8206 54.3274C38.4209 55.8107 41.0215 54.6776 41.0215 52.494V17.5057ZM49.1581 21.5603C49.2805 21.4509 49.4234 21.3667 49.5784 21.3126C49.7334 21.2584 49.8975 21.2353 50.0614 21.2446C50.2254 21.2539 50.3859 21.2954 50.5338 21.3667C50.6817 21.438 50.8141 21.5378 50.9234 21.6603C54.2033 25.329 56.0165 30.0781 56.0165 34.9998C56.0165 39.9216 54.2033 44.6707 50.9234 48.3393C50.8144 48.4634 50.6819 48.5647 50.5335 48.6373C50.3851 48.7098 50.2238 48.7523 50.059 48.7622C49.8941 48.772 49.7289 48.7491 49.573 48.6948C49.417 48.6405 49.2733 48.5557 49.1503 48.4455C49.0272 48.3353 48.9272 48.2018 48.8561 48.0527C48.7849 47.9037 48.7439 47.7419 48.7356 47.5769C48.7272 47.4119 48.7517 47.2469 48.8074 47.0914C48.8632 46.9359 48.9492 46.793 49.0605 46.6709C51.9306 43.4608 53.5173 39.3052 53.5173 34.9986C53.5173 30.6919 51.9306 26.5363 49.0605 23.3262C48.8394 23.0791 48.7254 22.7542 48.7437 22.4231C48.762 22.0919 48.911 21.7815 49.1581 21.5603ZM46.22 42.3362C46.0776 42.2542 45.9527 42.1451 45.8525 42.0149C45.7523 41.8847 45.6788 41.736 45.6361 41.5773C45.5933 41.4187 45.5823 41.2532 45.6035 41.0902C45.6248 40.9273 45.6779 40.7701 45.7599 40.6278C46.7475 38.9167 47.2674 36.9756 47.2674 34.9998C47.2674 33.024 46.7475 31.083 45.7599 29.3719C45.6694 29.2295 45.6087 29.0704 45.5813 28.9039C45.554 28.7375 45.5605 28.5672 45.6006 28.4034C45.6408 28.2396 45.7136 28.0855 45.8148 27.9506C45.9159 27.8156 46.0433 27.7026 46.1893 27.6182C46.3353 27.5337 46.4968 27.4797 46.6642 27.4594C46.8316 27.4391 47.0014 27.4528 47.1633 27.4998C47.3253 27.5468 47.476 27.6261 47.6066 27.7329C47.7371 27.8397 47.8447 27.9718 47.9228 28.1212C49.1302 30.2124 49.7661 32.5846 49.7666 34.9995C49.767 37.4144 49.132 39.7868 47.9253 41.8784C47.7595 42.165 47.4869 42.3741 47.1672 42.4599C46.8476 42.5457 46.5069 42.5012 46.22 42.3362Z" fill="white"/>
</svg>
